<svg width="786" height="120" viewBox="0 0 786 120" fill="none" xmlns="http://www.w3.org/2000/svg">
<g clip-path="url(#clip0)">
<path d="M278.135 39.6009C285.861 33.5204 296.712 28.3954 308.345 28.3954C319.37 28.3954 328.571 32.9123 328.571 50.1115V108.571H313.206V53.7598C313.206 43.9441 308.866 41.2513 301.313 41.2513C292.719 41.2513 284.733 45.334 278.222 49.0691V108.571H262.857V2.85715H271.277C277.18 2.85715 278.222 4.24698 278.222 13.1072V39.6009H278.135Z" fill="#8000FF"/>
<path d="M355.745 71.6549C356.519 90.156 364.864 97.0939 379.577 97.0939C389.643 97.0939 396.526 93.8391 401.258 89.9847H406.162V100.52C400.484 104.374 391.966 108.571 377.254 108.571C353.336 108.571 340 93.4108 340 68.914C340 44.0746 355.4 28.5714 375.791 28.5714C396.44 28.5714 408.571 40.6485 408.571 66.2588C408.571 68.3145 408.399 71.0554 408.399 71.6549H355.745ZM356.003 61.6335H393.429C393.171 44.7599 386.546 39.0211 375.791 39.0211C365.553 39.0211 357.637 45.1025 356.003 61.6335Z" fill="#8000FF"/>
<path d="M465.083 99.0639C459.22 105.317 452.149 108.571 441.716 108.571C427.489 108.571 417.143 100.52 417.143 85.3594C417.143 69.428 429.904 61.6335 447.58 61.6335C454.305 61.6335 459.306 62.4044 464.652 63.6892V53.4108C464.652 44.1603 459.22 40.1346 448.873 40.1346C439.561 40.1346 432.404 42.9611 427.403 46.5586H422.575V35.2524C429.473 31.8262 438.181 28.5714 450.77 28.5714C469.394 28.5714 480 35.2524 480 52.383V107.629H473.964C468.101 107.715 466.031 106.002 465.083 99.0639ZM464.652 89.2138V72.6828C460.341 71.8262 455.512 71.2267 450.08 71.2267C439.561 71.2267 432.059 75.0811 432.059 84.5029C432.059 94.1817 438.181 98.2074 446.631 98.2074C454.909 98.1217 460.168 94.2673 464.652 89.2138Z" fill="#8000FF"/>
<path d="M547.994 97.0358C542.674 103.492 534.482 108.571 523.926 108.571C507.881 108.571 494.285 96.8637 494.285 69.6603C494.285 38.9274 510.584 28.1666 526.038 28.1666C536.594 28.1666 542.927 31.3518 547.91 36.2587V2.85715H556.101C562.012 2.85715 562.857 4.32062 562.857 13.0154V107.624H552.976C549.598 107.711 548.416 105.903 547.994 97.0358ZM547.825 86.8776V47.0196C543.434 42.8013 538.114 40.3909 530.176 40.3909C520.042 40.3909 509.317 45.9004 509.317 68.7994C509.317 90.235 517.086 97.208 527.558 97.208C536.087 97.3802 542.083 93.3341 547.825 86.8776Z" fill="#8000FF"/>
<path d="M577.143 68.914C577.143 44.0746 593.195 28.5714 614.285 28.5714C635.376 28.5714 651.428 44.0746 651.428 68.914C651.428 93.6678 635.376 108.571 614.285 108.571C593.195 108.571 577.143 93.6678 577.143 68.914ZM635.888 68.914C635.888 50.156 627.435 40.0489 614.2 40.0489C601.136 40.0489 592.512 50.156 592.512 68.914C592.512 87.6721 601.136 97.0939 614.2 97.0939C627.435 97.0939 635.888 87.7577 635.888 68.914Z" fill="#8000FF"/>
<path d="M715.981 88.9619V28.5714H731.428V107.53H721.741C718.076 107.53 716.592 106.315 716.156 98.5931C708.302 104.146 697.916 108.571 687.444 108.571C674.965 108.571 665.714 103.452 665.714 87.4868V28.5714H681.161V83.9293C681.161 94.0812 686.135 96.4239 693.466 96.4239C701.495 96.5107 709.611 92.6929 715.981 88.9619Z" fill="#8000FF"/>
<path d="M742.857 27.4708H752.304V5.71428H761.494C766.218 5.71428 767.678 7.4831 767.678 14.2931L767.506 27.4708H784.855V38.526H767.506V85.842C767.506 94.4208 770.941 96.8972 778.671 96.8972H785.714V107.068C782.965 107.687 778.671 108.571 773.346 108.571C760.12 108.571 752.39 102.823 752.39 87.8762V38.526H742.943V27.4708H742.857Z" fill="#8000FF"/>
<path d="M213.991 49.0276C198.086 78.8969 158.712 93.7881 118.122 93.7881C85.8755 93.7881 54.1507 89.521 26.5111 77.2424C92.5681 84.2961 156.539 81.5094 213.991 49.0276ZM213.991 36.5747C194.696 30.8273 177.312 29.1727 159.321 29.3469C113.689 29.6952 67.536 43.4543 26.7718 61.4804C59.1919 32.656 107.431 11.6691 155.757 11.6691C178.79 11.6691 205.3 21.5094 213.991 36.5747ZM222.857 43.1059C222.857 12.4528 176.704 0 150.368 0C109.082 0 74.4024 15.0653 44.7637 31.611C42.9384 28.3019 40.3309 27.6923 36.2458 27.1698C30.1616 26.6473 26.4241 26.3861 21.8175 26.3861C16.7763 26.3861 9.21454 26.7344 3.30417 27.6923C0.435898 28.2148 -0.520191 30.479 0.262064 33.9623C2.86958 43.4543 6.78085 51.9884 11.909 60C9.64912 67.8374 10.4314 75.2395 16.9502 81.3353C14.6903 90.479 13.995 100.493 14.3426 109.55C14.8642 113.295 16.7763 114.34 19.9053 113.817C31.5523 111.988 42.8515 107.896 52.6731 102.671C55.1068 101.364 56.2367 99.8839 56.9321 98.0551L85.7017 102.496C90.1345 107.286 94.5672 111.379 99.9561 115.907C103.52 118.52 107.344 120 112.038 120C132.985 119.826 150.629 116.691 165.231 111.118C170.967 109.289 175.226 101.626 181.571 90.9144C195.652 83.7736 222.857 70.3628 222.857 43.1059Z" fill="#8000FF"/>
</g>
<defs>
<clipPath id="clip0">
<rect width="785.714" height="120" fill="white"/>
</clipPath>
</defs>
</svg>
