<svg xmlns="http://www.w3.org/2000/svg" width="375" viewBox="0 0 375 375" height="375" version="1.0"><g fill="#F0C131"><g><g><path d="M 0.390625 14.96875 C 0.390625 15.097656 1.042969 15.621094 1.953125 16.011719 C 3.125 16.660156 3.644531 16.660156 3.90625 16.140625 C 4.164062 15.621094 4.6875 16.269531 5.335938 17.964844 C 6.507812 20.566406 7.160156 21.085938 7.679688 19.914062 C 7.941406 19.394531 8.460938 19.523438 9.242188 20.046875 C 9.894531 20.695312 10.933594 21.21875 11.585938 21.347656 C 12.234375 21.476562 13.40625 21.347656 14.058594 21.085938 C 15.359375 20.566406 15.488281 20.046875 16.269531 13.148438 C 16.660156 9.242188 17.3125 2.863281 17.703125 -0.78125 C 18.09375 -4.6875 18.742188 -8.980469 19.265625 -10.414062 C 20.4375 -13.667969 20.4375 -14.839844 19.394531 -14.1875 C 18.742188 -13.929688 18.742188 -14.316406 19.003906 -16.921875 C 19.132812 -18.613281 19.523438 -20.304688 19.785156 -20.566406 C 20.046875 -21.085938 20.175781 -20.828125 19.914062 -20.175781 C 19.785156 -19.523438 19.785156 -19.003906 20.175781 -19.003906 C 20.566406 -19.003906 20.695312 -19.785156 20.4375 -21.476562 C 20.175781 -23.300781 20.175781 -23.558594 20.695312 -23.167969 C 21.21875 -22.910156 21.347656 -23.039062 21.085938 -23.820312 C 20.566406 -25.382812 21.867188 -30.71875 22.519531 -30.328125 C 22.910156 -30.070312 23.300781 -30.71875 23.429688 -31.628906 C 23.558594 -33.0625 23.558594 -33.191406 22.910156 -32.542969 C 22.128906 -31.761719 22.128906 -31.890625 22.390625 -33.324219 C 22.648438 -34.105469 23.167969 -36.707031 23.558594 -38.789062 C 23.949219 -41.003906 24.472656 -43.605469 24.730469 -44.648438 C 24.992188 -45.820312 25.902344 -49.203125 26.554688 -52.457031 C 27.335938 -55.710938 28.375 -60.007812 28.898438 -62.21875 C 29.417969 -64.433594 29.9375 -66.515625 29.9375 -66.90625 C 29.9375 -67.296875 30.460938 -68.988281 30.980469 -70.550781 C 31.5 -72.242188 32.542969 -75.625 33.191406 -78.101562 C 33.84375 -80.703125 34.496094 -82.527344 34.625 -82.265625 C 34.753906 -82.003906 34.753906 -82.136719 34.625 -82.65625 C 34.496094 -83.4375 36.445312 -91.636719 37.878906 -96.0625 C 38.269531 -97.234375 38.53125 -98.277344 38.53125 -98.667969 C 38.53125 -98.925781 39.050781 -100.359375 39.570312 -101.789062 C 40.089844 -103.222656 40.613281 -104.914062 40.613281 -105.695312 C 40.613281 -106.476562 40.871094 -107.386719 41.132812 -107.648438 C 41.394531 -108.039062 41.785156 -108.949219 41.914062 -109.601562 C 42.175781 -111.8125 42.953125 -114.285156 43.867188 -115.328125 C 44.386719 -115.847656 45.296875 -118.191406 45.820312 -120.402344 C 46.46875 -122.617188 47.902344 -126 48.8125 -127.824219 C 49.722656 -129.644531 50.894531 -131.988281 51.285156 -133.03125 C 51.546875 -134.203125 52.328125 -135.242188 52.976562 -135.503906 C 53.628906 -135.765625 53.890625 -136.023438 53.5 -136.285156 C 52.71875 -136.675781 53.109375 -138.105469 54.410156 -140.582031 C 55.191406 -141.882812 55.582031 -142.273438 55.839844 -141.621094 C 56.363281 -140.839844 59.097656 -145.65625 59.617188 -148.261719 C 59.875 -149.039062 60.527344 -150.734375 61.4375 -151.90625 C 62.21875 -152.945312 63.652344 -155.550781 64.5625 -157.5 C 65.605469 -159.453125 66.386719 -161.144531 66.644531 -161.144531 C 66.90625 -161.144531 66.777344 -154.636719 66.253906 -152.296875 C 66.125 -151.515625 65.863281 -149.953125 65.863281 -148.78125 C 65.734375 -147.609375 65.472656 -145.527344 65.34375 -144.226562 C 65.082031 -143.054688 64.953125 -141.359375 64.824219 -140.710938 C 64.824219 -140.058594 64.5625 -139.019531 64.433594 -138.367188 C 64.171875 -137.976562 64.042969 -137.066406 64.042969 -136.414062 C 64.042969 -136.023438 63.390625 -131.207031 62.742188 -126.132812 C 61.960938 -120.925781 61.308594 -115.847656 61.179688 -114.675781 C 61.179688 -113.636719 60.917969 -112.332031 60.65625 -111.683594 C 60.527344 -111.03125 60.398438 -109.992188 60.527344 -109.339844 C 60.789062 -108.558594 60.65625 -107.910156 60.398438 -107.777344 C 60.136719 -107.777344 59.875 -105.695312 59.746094 -103.351562 C 59.617188 -101.140625 59.355469 -98.277344 59.226562 -97.234375 C 58.574219 -91.246094 58.183594 -86.300781 58.183594 -82.265625 C 58.183594 -79.792969 57.925781 -77.578125 57.664062 -77.320312 C 57.273438 -77.058594 57.273438 -76.40625 57.792969 -75.496094 C 58.183594 -74.585938 58.183594 -74.195312 57.792969 -73.804688 C 57.535156 -73.542969 57.402344 -70.941406 57.535156 -66.644531 C 57.535156 -63 57.535156 -59.875 57.273438 -59.875 C 57.144531 -59.875 57.011719 -59.097656 57.011719 -57.925781 C 57.011719 -56.882812 57.144531 -55.972656 57.535156 -55.972656 C 57.792969 -55.972656 57.792969 -55.582031 57.402344 -55.058594 C 56.882812 -54.148438 56.882812 -53.890625 57.273438 -53.5 C 57.792969 -53.109375 57.792969 -52.847656 57.535156 -52.585938 C 57.144531 -52.328125 57.011719 -48.421875 57.144531 -42.304688 C 57.273438 -36.707031 57.402344 -31.890625 57.402344 -31.371094 C 57.402344 -29.546875 57.535156 -25.253906 57.535156 -22.910156 C 57.664062 -21.738281 57.792969 -19.523438 57.792969 -18.222656 C 57.792969 -16.921875 58.183594 -15.75 58.445312 -15.75 C 58.707031 -15.75 59.746094 -14.707031 60.65625 -13.539062 C 61.828125 -11.976562 62.871094 -11.0625 63.910156 -10.933594 C 64.824219 -10.933594 65.996094 -10.28125 66.777344 -9.761719 C 70.289062 -6.769531 73.152344 -9.761719 74.324219 -17.964844 C 75.105469 -22.910156 76.277344 -33.0625 76.539062 -36.578125 C 76.667969 -38.53125 77.578125 -42.953125 78.621094 -46.859375 C 79.140625 -48.550781 79.660156 -51.023438 79.792969 -52.457031 C 80.050781 -53.890625 80.574219 -56.621094 80.964844 -58.574219 C 81.355469 -60.65625 81.875 -63.390625 82.136719 -64.691406 C 82.265625 -66.125 82.785156 -67.816406 83.175781 -68.597656 C 83.4375 -69.378906 84.609375 -73.152344 85.648438 -77.058594 C 86.5625 -81.09375 87.863281 -85.78125 88.511719 -87.730469 C 89.164062 -89.816406 89.945312 -92.546875 90.335938 -93.980469 C 91.117188 -96.714844 91.765625 -98.535156 92.808594 -101.789062 C 93.199219 -102.832031 93.851562 -105.042969 94.371094 -106.605469 C 94.890625 -108.167969 95.671875 -111.164062 96.453125 -113.113281 C 97.105469 -115.066406 97.886719 -117.800781 98.277344 -119.101562 C 98.925781 -120.792969 99.316406 -121.445312 99.839844 -121.183594 C 100.75 -120.792969 102.179688 -123.917969 102.179688 -126.132812 C 102.179688 -127.5625 102.179688 -127.5625 101.140625 -126 L 100.097656 -124.4375 L 100.878906 -126.523438 C 101.398438 -127.824219 101.921875 -128.472656 102.441406 -128.34375 C 103.222656 -127.953125 104.523438 -131.207031 105.042969 -134.460938 C 105.304688 -135.503906 105.695312 -136.546875 106.085938 -136.804688 C 106.605469 -136.933594 106.738281 -137.457031 106.605469 -137.847656 C 106.347656 -138.105469 106.085938 -138.367188 105.695312 -138.105469 C 105.175781 -137.585938 105.175781 -138.238281 105.824219 -139.800781 C 106.085938 -140.449219 106.605469 -140.96875 106.996094 -140.96875 C 107.519531 -140.96875 107.777344 -141.359375 107.777344 -141.621094 C 107.777344 -142.011719 107.519531 -142.273438 107.257812 -142.273438 C 106.867188 -142.273438 106.738281 -142.53125 106.996094 -142.792969 C 107.257812 -143.054688 107.648438 -143.3125 108.039062 -143.3125 C 108.296875 -143.3125 108.6875 -143.835938 108.820312 -144.484375 C 108.820312 -145.265625 108.6875 -145.527344 108.429688 -145.394531 C 108.167969 -145.136719 108.039062 -145.65625 108.296875 -146.699219 L 108.558594 -148.519531 L 108.820312 -146.828125 L 109.210938 -145.265625 L 110.121094 -147.21875 C 110.773438 -148.519531 110.902344 -149.039062 110.511719 -149.300781 C 110.121094 -149.429688 109.859375 -149.820312 109.859375 -150.210938 C 109.859375 -150.601562 110.25 -150.601562 110.902344 -150.082031 C 111.683594 -149.5625 111.945312 -149.5625 111.945312 -150.34375 C 111.945312 -150.863281 112.464844 -152.554688 113.246094 -154.246094 C 113.894531 -155.941406 114.417969 -157.5 114.15625 -157.890625 C 114.027344 -158.28125 114.15625 -158.542969 114.546875 -158.542969 C 115.199219 -158.542969 117.539062 -162.707031 117.539062 -163.75 C 117.539062 -164.011719 117.800781 -164.660156 118.191406 -165.050781 C 118.84375 -165.703125 118.972656 -165.703125 118.972656 -164.402344 C 118.972656 -163.359375 119.234375 -163.097656 119.753906 -163.359375 C 120.273438 -163.488281 120.535156 -163.488281 120.535156 -163.097656 C 120.535156 -162.839844 120.402344 -162.449219 120.144531 -162.316406 C 119.882812 -162.1875 119.492188 -160.625 119.363281 -158.804688 C 118.84375 -153.464844 118.0625 -142.664062 118.191406 -141.621094 C 118.191406 -141.101562 118.0625 -139.800781 117.800781 -138.757812 C 117.539062 -137.066406 117.410156 -133.941406 116.757812 -121.964844 C 116.628906 -120.015625 116.367188 -117.929688 116.238281 -117.671875 C 115.980469 -117.28125 116.109375 -117.019531 116.5 -117.019531 C 116.890625 -117.019531 117.019531 -116.757812 116.628906 -116.238281 C 116.238281 -115.71875 116.109375 -113.375 116.109375 -111.03125 C 116.238281 -108.6875 116.109375 -106.867188 115.847656 -106.996094 C 115.71875 -107.128906 115.589844 -105.175781 115.71875 -102.441406 C 115.847656 -99.839844 115.71875 -97.496094 115.457031 -97.234375 C 115.328125 -96.972656 115.199219 -93.851562 115.328125 -90.074219 C 115.328125 -86.300781 115.328125 -83.175781 115.066406 -83.175781 C 114.417969 -83.175781 114.546875 -78.492188 115.199219 -77.96875 C 115.457031 -77.578125 115.457031 -77.058594 115.066406 -76.148438 C 114.546875 -75.105469 114.546875 -74.585938 115.066406 -73.804688 C 115.328125 -73.152344 115.328125 -72.894531 115.066406 -72.894531 C 114.675781 -72.894531 114.417969 -72.632812 114.417969 -72.242188 C 114.417969 -71.851562 114.808594 -71.722656 115.066406 -71.980469 C 115.589844 -72.371094 115.589844 -72.242188 115.066406 -71.589844 C 114.285156 -70.550781 114.285156 -68.335938 114.9375 -68.335938 C 115.589844 -68.335938 115.589844 -66.644531 114.808594 -65.082031 C 114.285156 -64.042969 114.285156 -63.652344 114.808594 -63.261719 C 115.328125 -62.871094 115.328125 -62.351562 114.9375 -60.917969 C 114.675781 -59.875 114.546875 -58.574219 114.808594 -58.054688 C 115.199219 -56.621094 115.457031 -54.28125 115.589844 -50.765625 C 115.71875 -49.203125 115.980469 -47.378906 116.109375 -46.730469 C 116.367188 -46.210938 116.5 -44.90625 116.238281 -43.996094 C 116.109375 -42.953125 116.109375 -42.304688 116.5 -42.304688 C 116.890625 -42.304688 116.890625 -42.175781 116.5 -41.394531 C 116.109375 -40.871094 116.109375 -40.351562 116.367188 -40.351562 C 116.628906 -40.351562 116.757812 -39.441406 116.628906 -38.269531 C 116.5 -36.96875 116.628906 -35.796875 117.019531 -35.664062 C 117.28125 -35.40625 117.410156 -34.496094 117.148438 -33.582031 C 117.019531 -32.671875 117.148438 -32.019531 117.539062 -32.019531 C 117.929688 -32.019531 118.0625 -31.238281 117.800781 -29.679688 C 117.671875 -28.375 117.671875 -27.464844 118.0625 -27.464844 C 118.320312 -27.464844 118.453125 -27.335938 118.320312 -26.945312 C 118.191406 -26.683594 118.191406 -26.035156 118.453125 -25.511719 C 118.710938 -24.992188 118.710938 -24.210938 118.453125 -23.820312 C 118.0625 -23.167969 118.0625 -22.910156 118.453125 -22.910156 C 118.710938 -22.910156 118.972656 -22.390625 118.84375 -21.738281 C 118.710938 -19.914062 119.625 -15.097656 120.144531 -15.097656 C 120.402344 -15.097656 120.402344 -14.578125 120.144531 -14.058594 C 120.015625 -13.277344 120.015625 -13.148438 120.535156 -13.539062 C 120.925781 -13.796875 121.054688 -13.277344 121.054688 -11.976562 C 121.054688 -10.804688 121.316406 -9.894531 121.574219 -9.894531 C 121.835938 -9.894531 122.097656 -9.503906 122.097656 -8.980469 C 122.097656 -7.550781 123.136719 -5.335938 124.4375 -3.90625 C 125.089844 -3.253906 125.609375 -2.472656 125.609375 -2.082031 C 125.609375 -1.691406 126.390625 0 127.433594 1.691406 C 129.125 4.554688 133.421875 8.199219 135.375 8.199219 C 135.765625 8.199219 136.933594 8.851562 137.976562 9.761719 C 139.539062 11.195312 139.929688 11.324219 141.359375 10.671875 C 142.921875 9.894531 143.054688 9.761719 142.792969 7.027344 C 142.53125 4.554688 140.96875 1.433594 139.929688 1.300781 C 137.976562 1.171875 135.503906 -3.644531 134.332031 -9.894531 C 133.941406 -11.976562 133.421875 -13.796875 133.160156 -14.1875 C 132.769531 -14.96875 131.339844 -22.390625 130.949219 -25.511719 C 130.6875 -28.117188 129.777344 -35.664062 128.996094 -42.304688 C 128.472656 -45.949219 128.085938 -55.710938 127.953125 -65.214844 C 127.695312 -80.050781 127.695312 -82.003906 128.472656 -81.484375 C 128.996094 -81.355469 129.253906 -81.484375 129.253906 -82.265625 C 129.253906 -83.046875 128.996094 -83.308594 128.472656 -83.046875 C 127.824219 -82.785156 127.695312 -82.917969 127.824219 -83.828125 C 128.085938 -84.347656 128.34375 -89.292969 128.472656 -94.632812 C 128.605469 -99.96875 129.125 -108.6875 129.515625 -113.894531 C 129.90625 -119.101562 130.167969 -123.660156 130.167969 -123.917969 C 130.035156 -124.179688 130.167969 -125.609375 130.296875 -127.042969 C 130.558594 -128.472656 130.816406 -131.597656 130.949219 -133.8125 C 131.46875 -141.230469 131.730469 -144.484375 132.25 -150.34375 C 132.640625 -153.464844 132.769531 -159.585938 132.769531 -163.75 C 132.640625 -170.257812 132.378906 -171.691406 131.730469 -172.210938 C 131.207031 -172.601562 130.558594 -173.902344 130.167969 -175.203125 C 129.777344 -177.027344 129.125 -177.675781 126.652344 -179.371094 C 123.269531 -181.453125 121.835938 -181.710938 120.402344 -180.28125 C 118.84375 -178.847656 117.929688 -178.980469 118.191406 -180.542969 C 118.710938 -182.234375 118.0625 -182.234375 115.457031 -180.671875 C 113.503906 -179.371094 107.777344 -171.300781 107.777344 -169.738281 C 107.777344 -169.347656 107.648438 -168.957031 107.386719 -168.828125 C 106.867188 -168.566406 100.878906 -155.808594 98.667969 -150.34375 C 97.886719 -148.128906 97.234375 -145.917969 97.496094 -145.265625 C 97.753906 -144.617188 97.496094 -144.355469 96.972656 -144.617188 C 96.453125 -144.875 96.0625 -144.746094 96.0625 -144.355469 C 96.0625 -143.835938 95.023438 -140.449219 93.589844 -136.675781 C 92.15625 -133.03125 90.988281 -129.644531 90.988281 -129.253906 C 90.988281 -129.125 90.726562 -127.953125 90.335938 -126.914062 C 89.554688 -125.21875 87.863281 -120.015625 85.519531 -113.113281 C 82.136719 -102.832031 76.148438 -82.527344 73.023438 -70.289062 L 71.203125 -63.390625 L 71.203125 -69.898438 C 71.203125 -78.101562 72.242188 -91.898438 74.066406 -106.214844 C 74.714844 -112.332031 75.367188 -120.015625 75.496094 -123.136719 C 75.496094 -128.605469 76.277344 -135.503906 77.320312 -140.058594 C 77.96875 -143.445312 78.75 -149.5625 78.492188 -150.210938 C 78.101562 -150.992188 79.273438 -155.289062 79.921875 -155.289062 C 80.574219 -155.289062 80.183594 -164.011719 79.273438 -168.175781 C 77.578125 -174.945312 72.894531 -178.589844 67.296875 -177.289062 C 66.515625 -177.15625 66.386719 -177.289062 66.386719 -178.199219 C 66.90625 -181.191406 62.351562 -177.9375 58.445312 -172.339844 C 55.839844 -168.695312 48.8125 -154.769531 45.6875 -147.21875 C 44.648438 -144.617188 44.257812 -143.3125 44.648438 -142.921875 C 45.039062 -142.664062 44.90625 -142.402344 44.125 -142.140625 C 43.34375 -141.882812 43.085938 -141.359375 43.214844 -140.449219 C 43.476562 -139.667969 43.34375 -139.148438 43.085938 -139.277344 C 42.433594 -139.410156 39.699219 -132.898438 35.273438 -120.535156 C 32.800781 -113.503906 32.019531 -110.773438 32.28125 -109.46875 C 32.671875 -107.257812 33.714844 -107.910156 33.84375 -110.511719 C 33.84375 -114.417969 33.972656 -114.675781 34.234375 -114.285156 C 34.882812 -113.503906 37.226562 -116.757812 36.835938 -117.929688 C 36.707031 -118.582031 36.316406 -118.84375 36.054688 -118.710938 C 35.796875 -118.453125 35.535156 -118.582031 35.535156 -118.710938 C 35.535156 -119.101562 36.054688 -119.625 36.707031 -120.015625 C 37.226562 -120.273438 37.75 -121.183594 37.75 -121.835938 C 37.75 -122.617188 38.269531 -123.269531 38.789062 -123.527344 C 39.570312 -123.789062 39.832031 -124.570312 40.089844 -126.261719 C 40.222656 -127.5625 40.742188 -129.253906 41.132812 -129.777344 C 42.175781 -131.207031 43.605469 -135.375 43.605469 -136.675781 C 43.605469 -137.195312 43.996094 -137.847656 44.257812 -137.976562 C 44.648438 -138.105469 45.296875 -139.410156 45.558594 -140.710938 C 45.949219 -142.273438 46.859375 -144.226562 47.511719 -145.394531 C 48.292969 -146.566406 48.683594 -147.871094 48.683594 -148.519531 C 48.683594 -149.039062 48.941406 -149.429688 49.074219 -149.429688 C 49.332031 -149.429688 49.722656 -149.953125 49.984375 -150.734375 C 50.375 -151.382812 51.414062 -154.117188 52.71875 -156.851562 C 54.019531 -159.714844 54.671875 -162.058594 54.539062 -162.707031 C 54.28125 -163.359375 54.410156 -163.75 54.800781 -163.621094 C 55.449219 -163.488281 56.882812 -165.703125 57.664062 -168.304688 C 57.925781 -168.828125 58.445312 -169.476562 58.835938 -169.738281 C 59.226562 -170.128906 59.355469 -170.648438 59.097656 -171.039062 C 58.964844 -171.429688 58.964844 -171.558594 59.355469 -171.300781 C 59.875 -170.910156 62.480469 -173.902344 62.480469 -174.945312 C 62.480469 -175.335938 62.871094 -175.335938 63.261719 -175.203125 C 63.652344 -174.945312 64.042969 -175.203125 64.171875 -175.59375 C 64.300781 -175.984375 64.5625 -176.117188 64.953125 -175.855469 C 65.34375 -175.59375 64.824219 -174.03125 63.132812 -171.300781 C 61.828125 -169.085938 60.398438 -166.875 60.136719 -166.351562 C 60.007812 -165.703125 58.835938 -163.621094 57.925781 -161.796875 C 56.882812 -159.84375 55.972656 -157.761719 55.710938 -157.242188 C 55.449219 -156.722656 54.410156 -154.507812 53.367188 -152.296875 C 51.546875 -148.910156 47.25 -138.628906 43.085938 -127.953125 C 40.742188 -121.964844 36.835938 -110.511719 34.496094 -102.960938 C 32.933594 -98.144531 32.019531 -95.671875 31.5 -95.933594 C 31.238281 -96.0625 30.847656 -95.804688 30.847656 -95.28125 C 30.847656 -94.761719 31.109375 -94.242188 31.371094 -94.242188 C 31.890625 -94.242188 30.589844 -89.292969 28.636719 -83.828125 C 27.855469 -81.484375 23.820312 -65.34375 21.738281 -56.101562 C 21.085938 -53.238281 20.175781 -50.894531 19.914062 -51.15625 C 19.523438 -51.285156 19.394531 -50.636719 19.523438 -49.59375 C 19.65625 -48.550781 19.523438 -47.511719 19.265625 -47.25 C 19.003906 -47.121094 18.742188 -46.210938 18.742188 -45.429688 C 18.742188 -44.648438 18.351562 -43.214844 17.964844 -42.175781 C 17.574219 -41.132812 17.3125 -40.089844 17.441406 -39.832031 C 17.574219 -39.570312 17.3125 -39.308594 16.921875 -39.308594 C 16.011719 -39.308594 16.269531 -42.042969 17.441406 -46.46875 C 17.832031 -47.769531 17.964844 -49.464844 17.832031 -50.113281 C 17.703125 -50.894531 17.832031 -51.414062 18.222656 -51.414062 C 18.613281 -51.414062 18.742188 -52.066406 18.613281 -52.847656 C 18.222656 -54.410156 18.613281 -56.101562 19.265625 -55.710938 C 19.785156 -55.191406 20.957031 -60.398438 20.566406 -61.570312 C 20.4375 -62.089844 20.4375 -62.609375 20.828125 -62.871094 C 21.085938 -63 21.21875 -63.519531 20.957031 -63.78125 C 20.828125 -64.042969 21.085938 -64.691406 21.476562 -65.082031 C 22.128906 -65.863281 23.429688 -71.332031 23.167969 -72.503906 C 23.039062 -72.632812 23.300781 -73.152344 23.558594 -73.414062 C 24.210938 -73.933594 25.382812 -78.621094 26.035156 -82.65625 C 26.292969 -83.828125 26.8125 -85.519531 27.203125 -86.300781 C 27.59375 -87.082031 27.855469 -88.253906 27.726562 -88.773438 C 27.59375 -89.292969 27.855469 -90.335938 28.246094 -91.246094 C 29.15625 -92.679688 30.199219 -96.582031 29.9375 -97.753906 C 29.808594 -98.925781 30.460938 -100.75 31.109375 -100.75 C 31.761719 -100.75 33.0625 -104.523438 32.800781 -105.566406 C 32.800781 -106.085938 32.410156 -106.214844 31.890625 -106.085938 C 31.5 -106.085938 31.371094 -106.085938 31.761719 -106.476562 C 32.019531 -106.738281 32.152344 -107.648438 32.019531 -108.429688 C 31.628906 -109.859375 31.5 -109.730469 30.71875 -107.128906 C 30.199219 -105.566406 29.289062 -103.222656 28.765625 -101.789062 C 27.203125 -97.105469 19.132812 -68.207031 18.484375 -64.300781 C 18.222656 -63.390625 17.574219 -61.308594 16.792969 -59.484375 L 15.621094 -56.363281 L 15.878906 -60.917969 C 16.140625 -63.390625 16.269531 -67.296875 16.402344 -69.640625 C 16.53125 -71.851562 16.792969 -74.976562 17.050781 -76.40625 C 17.574219 -79.273438 18.484375 -87.472656 19.003906 -94.242188 C 19.132812 -96.582031 19.394531 -98.796875 19.65625 -99.1875 C 19.914062 -99.578125 20.175781 -101.398438 20.4375 -103.351562 C 20.566406 -105.433594 20.957031 -108.296875 21.21875 -109.859375 C 21.609375 -111.421875 22 -114.285156 22.128906 -116.238281 C 22.128906 -118.0625 22.777344 -121.707031 23.300781 -124.570312 C 23.820312 -127.304688 24.339844 -130.425781 24.339844 -131.207031 C 24.339844 -132.25 24.601562 -133.289062 24.863281 -133.679688 C 25.121094 -134.070312 25.382812 -136.933594 25.382812 -140.058594 C 25.511719 -145.527344 25.511719 -145.785156 24.082031 -147.21875 C 23.300781 -148.128906 22.390625 -148.78125 22.128906 -148.78125 C 21.738281 -148.78125 20.695312 -149.300781 19.785156 -149.820312 C 18.875 -150.34375 17.703125 -150.734375 17.3125 -150.472656 C 16.792969 -150.210938 15.488281 -149.820312 14.316406 -149.5625 C 12.757812 -149.039062 12.234375 -149.171875 12.367188 -149.820312 C 12.496094 -150.210938 12.234375 -150.863281 11.84375 -150.992188 C 11.195312 -151.253906 11.0625 -150.863281 11.0625 -148.910156 C 11.0625 -147.480469 10.804688 -146.046875 10.542969 -145.917969 C 10.414062 -145.65625 10.152344 -144.746094 10.152344 -143.703125 C 10.152344 -140.839844 8.589844 -129.515625 6.898438 -120.925781 C 5.988281 -116.367188 5.207031 -111.683594 5.207031 -110.121094 C 5.078125 -108.820312 4.945312 -107.128906 4.6875 -106.605469 C 4.164062 -104.785156 2.472656 -89.554688 1.433594 -77.058594 C 1.042969 -73.933594 0.78125 -70.289062 0.652344 -68.988281 C 0.261719 -65.863281 -0.519531 -55.320312 -0.652344 -53.757812 C -0.652344 -53.109375 -0.78125 -45.429688 -0.910156 -36.835938 C -1.042969 -28.375 -1.171875 -21.21875 -1.171875 -20.957031 C -1.171875 -20.828125 -1.300781 -16.660156 -1.433594 -11.84375 C -1.691406 -4.945312 -1.433594 -1.042969 -0.78125 5.859375 C -0.128906 10.671875 0.390625 14.707031 0.390625 14.96875 Z M 124.960938 -146.308594 C 125.089844 -145.917969 125.089844 -145.265625 124.960938 -144.746094 C 124.828125 -144.355469 124.699219 -144.617188 124.699219 -145.527344 C 124.699219 -146.4375 124.828125 -146.828125 124.960938 -146.308594 Z M 124.050781 -129.777344 C 124.050781 -129.253906 124.050781 -128.214844 124.050781 -127.5625 C 123.917969 -126.914062 123.789062 -127.433594 123.789062 -128.605469 C 123.789062 -129.90625 123.917969 -130.425781 124.050781 -129.777344 Z M 122.355469 -151.90625 C 122.617188 -151.644531 122.617188 -151.125 122.488281 -150.601562 C 122.226562 -150.210938 122.097656 -150.210938 122.097656 -150.992188 C 122.097656 -151.644531 122.226562 -152.164062 122.355469 -151.90625 Z M 119.492188 -37.617188 C 119.363281 -37.878906 119.363281 -39.570312 119.492188 -41.003906 C 119.753906 -43.734375 119.882812 -43.867188 120.144531 -42.042969 C 120.402344 -39.960938 119.882812 -36.445312 119.492188 -37.617188 Z M 120.402344 -35.144531 C 120.273438 -34.625 120.144531 -34.753906 120.144531 -35.535156 C 120.015625 -36.1875 120.144531 -36.578125 120.402344 -36.316406 C 120.535156 -36.1875 120.535156 -35.664062 120.402344 -35.144531 Z M 120.925781 -31.628906 C 120.792969 -30.980469 120.664062 -31.238281 120.664062 -32.28125 C 120.664062 -33.453125 120.792969 -33.972656 120.925781 -33.453125 C 121.054688 -33.0625 121.054688 -32.152344 120.925781 -31.628906 Z M 121.316406 -76.929688 C 121.316406 -75.105469 121.183594 -73.542969 120.925781 -73.542969 C 120.402344 -73.542969 120.535156 -76.539062 121.054688 -78.75 C 121.316406 -79.921875 121.445312 -79.402344 121.316406 -76.929688 Z M 121.835938 -137.457031 C 121.574219 -135.375 121.445312 -131.859375 121.316406 -129.644531 C 121.183594 -127.5625 121.054688 -124.308594 120.792969 -122.488281 C 120.535156 -118.972656 120.144531 -112.332031 119.753906 -102.050781 C 119.625 -98.277344 119.363281 -93.070312 119.234375 -90.335938 C 118.84375 -82.527344 118.972656 -59.097656 119.363281 -51.414062 C 119.492188 -47.511719 119.625 -44.257812 119.363281 -44.257812 C 118.0625 -44.257812 117.539062 -98.40625 118.710938 -108.820312 C 118.84375 -109.992188 119.492188 -117.019531 120.015625 -124.570312 C 120.535156 -132.121094 121.183594 -138.886719 121.574219 -139.800781 C 121.964844 -140.96875 121.964844 -140.449219 121.835938 -137.457031 Z M 66.253906 -99.449219 C 65.996094 -99.1875 65.863281 -100.226562 65.996094 -101.921875 L 66.253906 -104.914062 L 66.386719 -102.441406 C 66.515625 -101.140625 66.386719 -99.707031 66.253906 -99.449219 Z M 66.90625 -107.519531 C 66.777344 -106.867188 66.644531 -107.128906 66.644531 -108.167969 C 66.644531 -109.339844 66.777344 -109.859375 66.90625 -109.46875 C 67.035156 -108.949219 67.035156 -108.039062 66.90625 -107.519531 Z M 67.425781 -111.03125 C 67.296875 -110.511719 67.167969 -110.902344 67.167969 -111.8125 C 67.167969 -112.722656 67.296875 -113.113281 67.425781 -112.59375 C 67.554688 -112.203125 67.554688 -111.421875 67.425781 -111.03125 Z M 102.703125 -130.558594 L 101.660156 -128.996094 L 102.570312 -130.949219 C 103.742188 -133.550781 103.742188 -133.550781 103.742188 -132.769531 C 103.742188 -132.378906 103.351562 -131.46875 102.703125 -130.558594 Z M 72.503906 -55.320312 C 73.285156 -58.707031 73.933594 -62.480469 74.066406 -63.652344 C 74.195312 -64.824219 74.585938 -65.734375 74.714844 -65.734375 C 74.976562 -65.734375 75.496094 -67.554688 76.015625 -70.941406 C 76.015625 -71.203125 76.148438 -71.589844 76.40625 -71.980469 C 76.796875 -72.894531 78.492188 -79.273438 79.402344 -83.4375 C 79.660156 -85 80.183594 -87.082031 80.574219 -88.121094 C 80.832031 -89.292969 81.746094 -91.898438 82.394531 -93.980469 C 83.046875 -96.191406 83.828125 -98.277344 84.21875 -98.925781 C 84.609375 -99.449219 84.867188 -100.226562 84.867188 -100.617188 C 84.867188 -101.140625 85.128906 -101.921875 85.390625 -102.570312 C 86.171875 -104.652344 87.082031 -108.167969 86.953125 -109.339844 C 86.953125 -109.992188 87.34375 -110.773438 87.730469 -111.164062 C 88.121094 -111.683594 88.511719 -112.332031 88.511719 -112.722656 C 88.511719 -113.113281 89.035156 -114.675781 89.425781 -115.980469 C 90.074219 -117.410156 90.464844 -119.234375 90.464844 -119.753906 C 90.464844 -120.402344 90.726562 -120.925781 91.117188 -120.925781 C 91.378906 -120.925781 91.507812 -121.445312 91.246094 -122.226562 C 91.117188 -123.136719 91.246094 -123.527344 91.765625 -123.527344 C 92.15625 -123.527344 92.546875 -124.4375 92.808594 -126.132812 C 92.9375 -127.5625 93.328125 -128.605469 93.589844 -128.605469 C 93.851562 -128.605469 94.109375 -129.125 94.109375 -129.777344 C 94.109375 -130.296875 94.632812 -132.378906 95.414062 -134.460938 C 96.0625 -136.414062 97.105469 -139.277344 97.496094 -140.839844 C 97.886719 -142.402344 98.667969 -144.746094 99.449219 -145.917969 C 100.097656 -147.21875 100.75 -148.910156 101.007812 -149.691406 C 101.140625 -150.472656 101.660156 -151.515625 102.050781 -152.164062 C 102.441406 -152.816406 102.832031 -153.855469 102.832031 -154.636719 C 102.960938 -155.289062 103.222656 -155.941406 103.484375 -155.941406 C 103.742188 -155.941406 104.652344 -157.890625 105.566406 -160.105469 C 106.347656 -162.449219 107.257812 -164.402344 107.648438 -164.402344 C 108.039062 -164.402344 108.296875 -164.921875 108.167969 -165.441406 C 108.167969 -166.09375 108.558594 -167.003906 109.339844 -167.394531 C 110.773438 -168.304688 111.421875 -169.476562 111.03125 -170.519531 C 110.902344 -171.039062 111.164062 -171.691406 111.683594 -172.082031 C 112.074219 -172.601562 112.464844 -173.382812 112.464844 -173.773438 C 112.464844 -175.203125 115.71875 -178.71875 116.628906 -178.328125 C 117.148438 -178.066406 117.539062 -177.675781 117.539062 -177.546875 C 117.539062 -177.417969 116.5 -175.726562 115.328125 -173.640625 C 111.292969 -166.742188 104.523438 -152.035156 100.226562 -140.058594 C 98.796875 -136.15625 97.234375 -132.121094 96.84375 -131.207031 C 96.453125 -130.167969 95.414062 -127.433594 94.761719 -124.960938 C 94.109375 -122.617188 92.9375 -119.101562 92.289062 -117.28125 C 90.988281 -113.765625 87.863281 -103.875 86.5625 -99.839844 C 86.171875 -98.40625 85.648438 -96.582031 85.390625 -95.933594 C 82.917969 -87.992188 80.832031 -80.832031 80.832031 -80.050781 C 80.832031 -79.402344 80.574219 -78.75 80.441406 -78.359375 C 80.183594 -78.101562 79.273438 -75.105469 78.492188 -71.851562 C 77.710938 -68.726562 76.929688 -65.863281 76.667969 -65.34375 C 76.40625 -64.824219 74.195312 -55.582031 73.414062 -51.804688 C 73.152344 -50.113281 73.023438 -49.984375 72.632812 -51.15625 C 72.242188 -52.195312 72.113281 -52.195312 72.371094 -50.765625 C 72.371094 -49.722656 72.371094 -49.074219 72.113281 -49.203125 C 71.851562 -49.464844 71.589844 -48.941406 71.589844 -48.160156 C 71.589844 -47.25 71.460938 -46.210938 71.203125 -45.558594 C 70.421875 -44.257812 70.941406 -47.769531 72.503906 -55.320312 Z M 67.554688 -139.410156 C 68.46875 -145.65625 70.289062 -155.289062 70.421875 -155.160156 C 70.550781 -154.898438 70.289062 -151.90625 69.898438 -148.390625 C 69.378906 -144.875 68.726562 -139.019531 68.335938 -135.503906 C 67.296875 -127.171875 66.777344 -123.007812 65.863281 -117.019531 C 62.351562 -93.589844 60.527344 -55.710938 61.699219 -27.335938 C 61.828125 -23.820312 61.828125 -20.957031 61.699219 -20.957031 C 61.570312 -20.957031 61.4375 -21.21875 61.4375 -21.476562 C 61.308594 -21.738281 61.308594 -22.519531 61.179688 -23.167969 C 60.398438 -28.375 60.265625 -32.933594 60.265625 -52.71875 C 60.265625 -65.082031 60.527344 -78.359375 60.917969 -82.265625 C 61.179688 -86.300781 61.570312 -91.378906 61.699219 -93.589844 C 62.21875 -100.488281 63.910156 -115.328125 65.605469 -125.742188 C 66.386719 -131.078125 67.296875 -137.324219 67.554688 -139.410156 Z M 38.398438 -125.351562 C 38.269531 -124.828125 38.140625 -124.960938 38.140625 -125.742188 C 38.007812 -126.390625 38.140625 -126.78125 38.398438 -126.523438 C 38.53125 -126.390625 38.53125 -125.871094 38.398438 -125.351562 Z M 40.613281 -130.949219 C 40.351562 -130.816406 40.089844 -130.816406 40.089844 -131.207031 C 40.089844 -131.597656 40.351562 -132.121094 40.613281 -132.25 C 40.871094 -132.507812 41.132812 -132.378906 41.132812 -131.988281 C 41.132812 -131.730469 40.871094 -131.207031 40.613281 -130.949219 Z M 47.25 -132.769531 C 47.640625 -133.8125 48.03125 -134.332031 48.160156 -133.941406 C 48.292969 -133.421875 48.03125 -132.640625 47.511719 -132.121094 C 46.730469 -131.078125 46.730469 -131.078125 47.25 -132.769531 Z M 44.90625 -127.171875 C 45.6875 -128.214844 46.46875 -127.953125 45.949219 -126.78125 C 45.6875 -126.390625 45.296875 -126.132812 44.90625 -126.132812 C 44.257812 -126.132812 44.257812 -126.261719 44.90625 -127.171875 Z M 41.652344 -117.929688 C 42.175781 -119.363281 43.085938 -119.625 43.085938 -118.453125 C 43.085938 -118.191406 42.695312 -117.671875 42.175781 -117.148438 C 41.132812 -116.367188 41.132812 -116.5 41.652344 -117.929688 Z M 37.359375 -104.652344 C 37.75 -106.476562 37.878906 -106.996094 38.269531 -106.605469 C 38.398438 -106.476562 38.140625 -105.566406 37.75 -104.652344 L 36.96875 -103.09375 Z M 36.054688 -100.75 C 36.316406 -101.269531 36.578125 -101.53125 36.578125 -101.140625 C 36.578125 -100.75 36.316406 -99.96875 36.054688 -99.449219 C 35.796875 -98.925781 35.535156 -98.796875 35.535156 -99.1875 C 35.535156 -99.578125 35.796875 -100.226562 36.054688 -100.75 Z M 33.324219 -92.417969 C 33.582031 -93.328125 33.714844 -93.589844 33.84375 -93.199219 C 33.972656 -92.679688 33.84375 -91.898438 33.582031 -91.636719 C 33.191406 -91.117188 33.0625 -91.378906 33.324219 -92.417969 Z M 31.238281 -84.085938 C 31.371094 -84.738281 31.628906 -85.128906 31.761719 -85 C 32.019531 -84.738281 31.761719 -84.21875 31.5 -83.695312 C 30.980469 -83.175781 30.847656 -83.175781 31.238281 -84.085938 Z M 30.199219 -80.832031 C 30.460938 -81.484375 30.71875 -81.875 30.847656 -81.746094 C 30.980469 -81.484375 30.847656 -80.964844 30.460938 -80.441406 C 29.9375 -79.921875 29.9375 -79.921875 30.199219 -80.832031 Z M 15.621094 -55.058594 C 15.878906 -55.191406 16.011719 -54.800781 15.75 -54.019531 C 15.488281 -52.585938 15.097656 -52.328125 15.097656 -53.757812 C 15.097656 -54.148438 15.359375 -54.800781 15.621094 -55.058594 Z M 15.621094 -38.140625 C 15.878906 -38.398438 16.140625 -38.140625 16.140625 -37.617188 C 16.140625 -37.097656 15.878906 -36.445312 15.621094 -36.1875 C 15.359375 -36.054688 15.097656 -36.316406 15.097656 -36.835938 C 15.097656 -37.359375 15.359375 -38.007812 15.621094 -38.140625 Z M 14.96875 -34.753906 C 15.097656 -34.363281 15.097656 -33.453125 14.96875 -32.800781 C 14.839844 -32.28125 14.707031 -32.542969 14.707031 -33.582031 C 14.707031 -34.753906 14.839844 -35.273438 14.96875 -34.753906 Z M 5.726562 -73.285156 C 5.988281 -73.152344 5.988281 -72.632812 5.859375 -72.113281 C 5.597656 -71.589844 5.46875 -71.722656 5.46875 -72.503906 C 5.46875 -73.152344 5.597656 -73.542969 5.726562 -73.285156 Z M 4.6875 -63.910156 C 4.945312 -63.519531 4.945312 -62.742188 4.6875 -62.351562 C 4.554688 -61.960938 4.554688 -62.21875 4.554688 -63.132812 C 4.554688 -64.042969 4.554688 -64.433594 4.6875 -63.910156 Z M 4.296875 -56.492188 C 4.425781 -56.363281 4.425781 -55.710938 4.296875 -55.191406 C 4.164062 -54.800781 4.035156 -54.800781 4.035156 -55.710938 C 3.90625 -56.363281 4.035156 -56.753906 4.296875 -56.492188 Z M 2.734375 -8.460938 C 2.601562 -7.679688 2.472656 -8.332031 2.472656 -9.894531 C 2.472656 -11.585938 2.601562 -12.234375 2.734375 -11.324219 C 2.863281 -10.671875 2.863281 -9.242188 2.734375 -8.460938 Z M 2.863281 -13.796875 C 2.210938 -13.796875 2.210938 -15.230469 2.863281 -16.402344 C 3.253906 -17.183594 3.382812 -17.050781 3.382812 -15.621094 C 3.382812 -14.578125 3.125 -13.796875 2.863281 -13.796875 Z M 3.253906 -34.363281 C 3.382812 -33.453125 3.382812 -32.019531 3.253906 -31.109375 C 3.125 -30.460938 2.992188 -31.109375 2.992188 -32.933594 C 2.992188 -34.753906 3.125 -35.40625 3.253906 -34.363281 Z M 2.992188 -29.15625 C 3.253906 -29.289062 3.382812 -28.507812 3.382812 -27.464844 C 3.382812 -26.425781 3.382812 -25.511719 3.253906 -25.511719 C 2.734375 -25.511719 2.601562 -28.765625 2.992188 -29.15625 Z M 2.863281 -23.820312 C 3.125 -24.730469 3.253906 -24.082031 3.253906 -21.476562 C 3.382812 -19.394531 3.253906 -17.703125 3.253906 -17.703125 C 2.34375 -17.703125 2.082031 -21.609375 2.863281 -23.820312 Z M 2.863281 -23.820312" transform="translate(116.634 269.191)"/></g></g></g></svg>